<svg xmlns="http://www.w3.org/2000/svg" viewBox="0 0 128 160" width="128" height="160"><title>Hooks and eyes</title><rect x="1" y="1" width="126" height="158" rx="16" fill="#faf6ee"/><path d="M17 146H111" stroke="#e5dfd2"/><g stroke-width="1.6" stroke-linejoin="round" stroke-linecap="round"><path d="M44 28 L23 40 L15 72 L34 78 L39 59 L39 134 L89 134 L89 59 L94 78 L113 72 L105 40 L84 28 L75 24 Q64 36 53 24Z" fill="#e8eddf" stroke="#9aa68f" /><path d="M59 37 L59 130 M69 37 L69 130" fill="none" stroke="#a26749" stroke-width="2.6"/><path d="M54 48 L64 48 Q72 52 64 56 M70 48 Q80 52 70 56" fill="none" stroke="#a26749" stroke-width="2.6"/><path d="M54 70 L64 70 Q72 74 64 78 M70 70 Q80 74 70 78" fill="none" stroke="#a26749" stroke-width="2.6"/><path d="M54 92 L64 92 Q72 96 64 100 M70 92 Q80 96 70 100" fill="none" stroke="#a26749" stroke-width="2.6"/><path d="M54 114 L64 114 Q72 118 64 122 M70 114 Q80 118 70 122" fill="none" stroke="#a26749" stroke-width="2.6"/></g></svg>
