<svg xmlns="http://www.w3.org/2000/svg" viewBox="0 0 128 160" width="128" height="160"><title>Nightdress</title><rect x="1" y="1" width="126" height="158" rx="16" fill="#faf6ee"/><path d="M17 146H111" stroke="#e5dfd2"/><g stroke-width="1.6" stroke-linejoin="round" stroke-linecap="round"><path d="M44 52 L84 52 L96 138 Q64 147 32 138 Z" fill="#dce6d6" stroke="#4e6050" /><path d="M44 52 L84 52 L85 59 L43 59Z" fill="#dbb19a" stroke="#4e6050" /><path d="M52 62 L32 135" fill="none" stroke="#99a68e" /><path d="M58 62 L48 135" fill="none" stroke="#99a68e" /><path d="M64 62 L64 135" fill="none" stroke="#99a68e" /><path d="M70 62 L80 135" fill="none" stroke="#99a68e" /><path d="M76 62 L96 135" fill="none" stroke="#99a68e" /><path d="M49 24 L33 30 L26 44 L36 49 L42 49 L42 62 L40 52 Q64 58 88 52 L86 62 L86 49 L92 49 L102 44 L95 30 L79 24 Q64 43 49 24 Z" fill="#dce6d6" stroke="#4e6050" /><path d="M41 49 L87 49 L88 55 L40 55Z" fill="#dbb19a" stroke="#4e6050" /><path d="M48 40 Q64 49 80 40" fill="none" stroke="#a26749" /><circle cx="64" cy="41" r="2" fill="#dbb19a"/><circle cx="64" cy="48" r="2" fill="#dbb19a"/></g></svg>
