<svg xmlns="http://www.w3.org/2000/svg" viewBox="0 0 128 160" width="128" height="160"><title>Uniform trousers</title><rect x="1" y="1" width="126" height="158" rx="16" fill="#faf6ee"/><path d="M17 146H111" stroke="#e5dfd2"/><g stroke-width="1.6" stroke-linejoin="round" stroke-linecap="round"><path d="M40 29 L88 29 Q98 62 91 139 L70 139 L64 68 L58 139 L37 139 Q30 62 40 29Z" fill="#dce6d6" stroke="#4e6050" /><path d="M40 29 L88 29 L89 37 L39 37Z" fill="#dbb19a" stroke="#4e6050" /><path d="M64 38 L64 60 L69 57 M43 40 L39 52 M85 40 L89 52" fill="none" stroke="#4e6050" /><path d="M46 43 L46 134 M82 43 L82 134" fill="none" stroke="#a26749" /><path d="M42 29 L47 29 L47 39 L42 39Z" fill="#faf6ee" stroke="#4e6050" /><path d="M81 29 L86 29 L86 39 L81 39Z" fill="#faf6ee" stroke="#4e6050" /></g></svg>
