<svg xmlns="http://www.w3.org/2000/svg" viewBox="0 0 128 160" width="128" height="160"><title>Patiala bottoms</title><rect x="1" y="1" width="126" height="158" rx="16" fill="#faf6ee"/><path d="M17 146H111" stroke="#e5dfd2"/><g stroke-width="1.6" stroke-linejoin="round" stroke-linecap="round"><path d="M40 29 L88 29 Q112 62 91 139 L70 139 L64 68 L58 139 L37 139 Q16 62 40 29Z" fill="#dce6d6" stroke="#4e6050" /><path d="M40 29 L88 29 L89 37 L39 37Z" fill="#dbb19a" stroke="#4e6050" /><path d="M64 38 L64 60 L69 57 M43 40 L39 52 M85 40 L89 52" fill="none" stroke="#4e6050" /><path d="M47 40 Q36 66 47 132 M52 40 Q43 65 52 132 M81 40 Q92 66 81 132 M76 40 Q85 65 76 132" fill="none" stroke="#a26749" /></g></svg>
