<svg xmlns="http://www.w3.org/2000/svg" viewBox="0 0 128 160" width="128" height="160"><title>Frock</title><rect x="1" y="1" width="126" height="158" rx="16" fill="#faf6ee"/><path d="M17 146H111" stroke="#e5dfd2"/><g stroke-width="1.6" stroke-linejoin="round" stroke-linecap="round"><g transform="translate(10 13) scale(.84)"><path d="M44 62 L84 62 L110 125 Q64 134 18 125 Z" fill="#dce6d6" stroke="#4e6050" /><path d="M44 62 L84 62 L85 69 L43 69Z" fill="#dbb19a" stroke="#4e6050" /><path d="M52 72 L18 122" fill="none" stroke="#99a68e" /><path d="M58 72 L41 122" fill="none" stroke="#99a68e" /><path d="M64 72 L64 122" fill="none" stroke="#99a68e" /><path d="M70 72 L87 122" fill="none" stroke="#99a68e" /><path d="M76 72 L110 122" fill="none" stroke="#99a68e" /><path d="M49 24 L33 30 L25 46 L35 51 L42 49 L42 62 L40 62 Q64 68 88 62 L86 62 L86 49 L93 51 L103 46 L95 30 L79 24 Q64 43 49 24 Z" fill="#dce6d6" stroke="#4e6050" /><path d="M41 59 L87 59 L88 65 L40 65Z" fill="#dbb19a" stroke="#4e6050" /></g><path d="M57 64 L51 59 L49 67 L57 65 L64 62 L65 69 L58 66Z" fill="#dbb19a" stroke="#4e6050" /></g></svg>
