<svg xmlns="http://www.w3.org/2000/svg" viewBox="0 0 128 160" width="128" height="160"><title>Polo shirt</title><rect x="1" y="1" width="126" height="158" rx="16" fill="#faf6ee"/><path d="M17 146H111" stroke="#e5dfd2"/><g stroke-width="1.6" stroke-linejoin="round" stroke-linecap="round"><path d="M49 24 L33 30 L20.5 55 L30.5 60 L42 49 L42 62 L40 109 Q64 115 88 109 L86 62 L86 49 L97.5 60 L107.5 55 L95 30 L79 24 Q64 43 49 24 Z" fill="#dce6d6" stroke="#4e6050" /><path d="M49 24 L47 35 L57 42 L64 33 L71 42 L81 35 L79 24 L64 33Z" fill="#faf6ee" stroke="#4e6050" /><path d="M64 35 L64 58" fill="none" stroke="#4e6050" /><circle cx="64" cy="43" r="2" fill="#dbb19a"/><circle cx="64" cy="52" r="2" fill="#dbb19a"/></g></svg>
